<svg width="80" height="80" viewBox="0 0 80 80" fill="none" xmlns="http://www.w3.org/2000/svg">
<mask id="path-1-outside-1" maskUnits="userSpaceOnUse" x="37" y="7" width="18" height="13" fill="black">
<rect fill="white" x="37" y="7" width="18" height="13"/>
<path fill-rule="evenodd" clip-rule="evenodd" d="M53 9H48V12H42V15H39V18H49V15H51V12H53V9Z"/>
</mask>
<path d="M48 9V7H46V9H48ZM53 9H55V7H53V9ZM48 12V14H50V12H48ZM42 12V10H40V12H42ZM42 15V17H44V15H42ZM39 15V13H37V15H39ZM39 18H37V20H39V18ZM49 18V20H51V18H49ZM49 15V13H47V15H49ZM51 15V17H53V15H51ZM51 12V10H49V12H51ZM53 12V14H55V12H53ZM48 11H53V7H48V11ZM50 12V9H46V12H50ZM48 10H42V14H48V10ZM40 12V15H44V12H40ZM42 13H39V17H42V13ZM37 15V18H41V15H37ZM39 20H49V16H39V20ZM51 18V15H47V18H51ZM49 17H51V13H49V17ZM53 15V12H49V15H53ZM53 10H51V14H53V10ZM51 9V12H55V9H51Z" fill="#C4C4C4" mask="url(#path-1-outside-1)"/>
<path fill-rule="evenodd" clip-rule="evenodd" d="M20 24V68H60V24H57V21H54V18H26V21H23V24H20Z" fill="#C4C4C4"/>
<rect width="5" height="13" transform="matrix(-1 0 0 1 35 35)" fill="#262626"/>
<rect width="5" height="13" transform="matrix(-1 0 0 1 50 35)" fill="#262626"/>
<rect width="2" height="11" transform="matrix(1.19249e-08 -1 -1 -1.19249e-08 45 55)" fill="#262626"/>
<rect width="2" height="5" transform="matrix(1.19249e-08 -1 -1 -1.19249e-08 42 53)" fill="#262626"/>
<rect width="5" height="3" transform="matrix(1.19249e-08 -1 -1 -1.19249e-08 41 65)" fill="#262626"/>
<rect x="43" y="57" width="2" height="7" transform="rotate(90 43 57)" fill="#262626"/>
<rect x="36.9365" y="29.5773" width="2.57442" height="9.14194" transform="rotate(114.091 36.9365 29.5773)" fill="#262626"/>
<rect width="2.57442" height="9.14194" transform="matrix(0.408195 0.912895 0.912895 -0.408195 43.6035 29.5773)" fill="#262626"/>
</svg>
