<svg width="14" height="16" viewBox="0 0 14 16" fill="none" xmlns="http://www.w3.org/2000/svg">
<path fill-rule="evenodd" clip-rule="evenodd" d="M8.60001 7.99999C8.60001 6.26506 8.36928 4.71487 8.00971 3.61554C7.82903 3.06316 7.62472 2.65232 7.42189 2.39003C7.21385 2.121 7.06697 2.07962 7.00001 2.07962V1.07962C7.51295 1.07962 7.91851 1.39755 8.21295 1.7783C8.5126 2.16579 8.76081 2.69519 8.96016 3.30467C9.36063 4.52906 9.60001 6.18905 9.60001 7.99999C9.60001 8.25872 9.59512 8.51437 9.58558 8.76611C10.2905 8.68922 10.9225 8.5822 11.453 8.45299C12.0173 8.31552 12.4389 8.1595 12.7072 8.00497C12.9153 7.88513 12.9594 7.81046 12.9664 7.79867C12.9671 7.79755 12.9674 7.797 12.9675 7.79703C12.9676 7.79707 12.9675 7.79765 12.9672 7.79879C12.9665 7.80228 12.9648 7.81099 12.9648 7.82533L13.9648 7.82533C13.9648 8.33508 13.5549 8.67076 13.2063 8.87155C12.8203 9.0938 12.2951 9.2771 11.6896 9.42459C11.0682 9.57595 10.3326 9.69656 9.52055 9.77842C9.41922 10.8862 9.22489 11.886 8.96016 12.6953C8.76081 13.3048 8.5126 13.8342 8.21295 14.2217C7.91851 14.6024 7.51295 14.9204 7.00001 14.9204V13.9204C7.06697 13.9204 7.21385 13.879 7.42189 13.61C7.62472 13.3477 7.82903 12.9368 8.00971 12.3844C8.2346 11.6969 8.40909 10.8329 8.50825 9.85774C8.02255 9.88545 7.5176 9.9 6.99999 9.9C5.187 9.9 3.5292 9.72146 2.31038 9.42459C1.70487 9.2771 1.17966 9.0938 0.79373 8.87155C0.445068 8.67076 0.0352173 8.33508 0.0352173 7.82533H1.03522C1.03522 7.81099 1.03346 7.80228 1.03275 7.79879C1.03252 7.79765 1.03241 7.79707 1.0325 7.79703C1.0326 7.797 1.03292 7.79755 1.03359 7.79867C1.04055 7.81046 1.08466 7.88513 1.29277 8.00497C1.56111 8.1595 1.98265 8.31552 2.54704 8.45299C3.668 8.72603 5.24259 8.9 6.99999 8.9C7.54754 8.9 8.07735 8.88311 8.58122 8.8516C8.59359 8.5737 8.60001 8.28942 8.60001 7.99999Z" fill="white" fill-opacity="0.29"/>
<circle cx="7" cy="8" r="6.5" stroke="#CDCDCD"/>
<path d="M7.00001 14.512C5.98792 14.512 5.16745 11.5965 5.16745 8.00001C5.16745 4.40353 5.98792 1.48801 7.00001 1.48801" stroke="#CDCDCD"/>
<path d="M0.565802 7.28429C1.65331 6.59403 4.12498 6.11203 7.00002 6.11203C9.87505 6.11203 12.3467 6.59403 13.4342 7.28429" stroke="#CDCDCD"/>
</svg>
