<svg width="20" height="20" viewBox="0 0 20 20" fill="none" xmlns="http://www.w3.org/2000/svg">
<path fill-rule="evenodd" clip-rule="evenodd" d="M12 10C12 7.59229 11.6732 5.45402 11.1726 3.95227C10.9206 3.19616 10.6425 2.65642 10.3823 2.32624C10.2545 2.16408 10.1506 2.07752 10.0814 2.03507C10.0485 2.01483 10.0264 2.00645 10.0153 2.00305C10.0052 1.99998 10.001 2 10.0001 2L10 2V0C10.8519 0 11.5044 0.518893 11.9531 1.08829C12.4108 1.66896 12.7791 2.44724 13.07 3.31981C13.6552 5.07541 14 7.43715 14 10C14 10.2267 13.9973 10.4519 13.992 10.6752C14.7615 10.5411 15.4543 10.3704 16.0477 10.1726C16.8038 9.9206 17.3436 9.64253 17.6738 9.38232C17.8359 9.25453 17.9225 9.15057 17.9649 9.08143C17.9852 9.04845 17.9935 9.02644 17.9969 9.01529C18 9.00521 18 9.00095 18 9.00006V9H20C20 9.85195 19.4811 10.5044 18.9117 10.9531C18.331 11.4108 17.5528 11.7791 16.6802 12.07C15.8604 12.3433 14.9085 12.5641 13.8657 12.7219C13.7144 14.2156 13.4403 15.5693 13.07 16.6802C12.7791 17.5528 12.4108 18.331 11.9531 18.9117C11.5044 19.4811 10.8519 20 10 20V18H10.0001C10.001 18 10.0052 18 10.0153 17.9969C10.0264 17.9935 10.0485 17.9852 10.0814 17.9649C10.1506 17.9225 10.2545 17.8359 10.3823 17.6738C10.6425 17.3436 10.9206 16.8038 11.1726 16.0477C11.4569 15.1948 11.6852 14.1366 11.8293 12.9403C11.2354 12.9796 10.6236 13 10 13C7.43715 13 5.07541 12.6552 3.31981 12.07C2.44724 11.7791 1.66896 11.4108 1.08829 10.9531C0.518892 10.5044 0 9.85195 0 9H2V9.00006C2 9.00095 1.99998 9.00521 2.00306 9.01529C2.00645 9.02644 2.01483 9.04845 2.03507 9.08143C2.07752 9.15057 2.16408 9.25453 2.32624 9.38232C2.65642 9.64253 3.19616 9.9206 3.95227 10.1726C5.45402 10.6732 7.59229 11 10 11C10.686 11 11.3501 10.9735 11.9838 10.924C11.9945 10.6211 12 10.3128 12 10Z" fill="white" fill-opacity="0.29"/>
<circle cx="10" cy="10" r="9" stroke="#E3E3E3" stroke-width="2"/>
<path d="M11 19C8.79086 19 7 14.9706 7 10C7 5.02944 8.79086 1 11 1" stroke="#E3E3E3" stroke-width="2"/>
<path d="M0.999999 8C2.52117 7.41117 5.97848 7 10 7C14.0215 7 17.4788 7.41117 19 8" stroke="#E3E3E3" stroke-width="2"/>
</svg>
